<?xml version="1.0" encoding="UTF-8"?>
<svg id="Capa_1" xmlns="http://www.w3.org/2000/svg" version="1.1" viewBox="0 0 1701.1 215.34">
  <!-- Generator: Adobe Illustrator 30.2.1, SVG Export Plug-In . SVG Version: 2.1.1 Build 1)  -->
  <defs>
    <style>
      .st0 {
        fill: #fff;
      }
    </style>
  </defs>
  <g>
    <path class="st0" d="M546.59,199.18h-31.4V24.76h97.43v27.41h-66.03v47.84h60.3v27.41h-60.3v71.76Z"/>
    <path class="st0" d="M624.08,139.38v-54.57c0-37.38,20.43-62.04,62.04-62.04s61.8,24.67,61.8,62.04v54.57c0,37.38-20.18,61.8-61.8,61.8s-62.04-24.42-62.04-61.8ZM716.52,136.64v-49.34c0-23.17-7.72-35.88-30.4-35.88s-30.65,12.71-30.65,35.88v49.34c0,23.42,8.22,35.88,30.65,35.88s30.4-12.46,30.4-35.88Z"/>
    <path class="st0" d="M771.34,24.76h52.58c38.87,0,62.54,15.45,62.54,55.32,0,32.14-17.19,44.85-30.4,50.08l37.63,69.02h-34.88l-32.64-64.04h-23.67v64.04h-31.15V24.76ZM802.48,107.73h22.43c18.94,0,29.9-6.98,29.9-27.66,0-21.93-11.46-27.91-32.39-27.91h-19.93v55.57Z"/>
    <path class="st0" d="M1035.71,96.27h-1l-37.13,74.25h-15.95l-37.13-74.25h-1v102.91h-29.65V24.76h24.17l51.08,100.42h1l51.33-100.42h23.92v174.42h-29.65v-102.91Z"/>
  </g>
  <g>
    <path class="st0" d="M28.27,24.6h26.91l70.02,114.87h1V24.6h29.65v174.42h-27.41L58.92,84.15h-1v114.87h-29.65V24.6Z"/>
    <path class="st0" d="M206.67,171.61h66.53v27.41h-97.93V24.6h97.93v27.41h-66.53v44.35h61.05v27.41h-61.05v47.84Z"/>
    <path class="st0" d="M454.85,199.02h-32.64l-26.91-109.64h-1l-26.66,109.64h-32.64l-41.36-174.42h32.14l25.92,128.57h1l27.91-128.57h28.66l28.16,128.57h1l25.67-128.57h32.14l-41.36,174.42Z"/>
  </g>
  <g>
    <path class="st0" d="M1133.6,24.85h87.71v19.44h-66.53v58.81h61.05v19.44h-61.05v76.75h-21.18V24.85Z"/>
    <path class="st0" d="M1244.48,24.85h21.18v174.42h-21.18V24.85Z"/>
    <path class="st0" d="M1293.07,24.85h21.18v154.99h67.78v19.44h-88.96V24.85Z"/>
    <path class="st0" d="M1470.47,167.38l-45.35-89.95h-1.25v121.85h-19.93V24.85h15.45l56.06,109.64,55.82-109.64h15.7v174.42h-19.93v-121.85h-1.25l-45.35,89.95h-9.97Z"/>
    <path class="st0" d="M1658.35,151.18c0-53.32-83.47-19.69-83.47-81.73,0-29.9,17.69-46.6,50.33-46.6,17.19,0,33.64,5.23,47.34,15.7l-9.47,15.95c-13.7-8.97-26.91-11.96-37.88-11.96-24.42,0-29.65,12.71-29.65,26.66,0,39.87,83.47,13.7,83.47,80.23,0,28.41-15.45,51.83-55.07,51.83-18.44,0-37.88-5.73-52.83-16.69l9.72-16.7c12.46,6.73,25.17,13.21,43.11,13.21,25.91,0,34.39-13.21,34.39-29.9Z"/>
  </g>
</svg>